PathFileType	4	(X/Y/Z)	OpenSim_Sub02_CSBaseline_Gyro.trc
DataRate	CameraRate	NumFrames	NumMarkers	Units	OrigDataRate	OrigDataStartFrame	OrigNumFrames
100	100	13	8	m	100	4411	7057
Frame#	Time	torso_imu_offset_imu	pelvis_imu_offset_imu	tibia_r_imu_offset_imu	femur_r_imu_offset_imu	tibia_l_imu_offset_imu	femur_l_imu_offset_imu	toes_r_imu_offset_imu	toes_l_imu_offset_imu
				X1	Y1	Z1	X2	Y2	Z2	X3	Y3	Z3	X4	Y4	Z4	X5	Y5	Z5	X6	Y6	Z6	X7	Y7	Z7	X8		Y8	Z8	

4411	44.10000000	0.01461982	0.05312281	0.12768329	-0.27673303	-0.03684936	-0.05863518	-0.16423716	0.25922801	-1.13918256	-0.38175141	-0.21333678	-0.58810619	-3.02014183	-1.51501935	-3.30024120	-0.26682428	0.25555778	1.49156691	-0.16242230	-0.66796813	0.09374179	-1.10745398	2.41007876	-3.80690520
4412	44.11000000	-0.03712961	0.07955274	0.08888945	-0.28461054	-0.01048209	-0.09806907	-0.09946195	0.28939471	-1.18531959	-0.40593235	-0.14830525	-0.55365835	-2.78904885	-1.18835323	-2.95849353	-0.60725808	0.12749427	1.44180757	-0.11289964	-0.71278091	0.08650647	-0.85853381	1.93621969	-3.65551465
4413	44.12000000	-0.07037470	0.09765828	0.04968273	-0.29391915	-0.00830155	-0.12536044	-0.00245391	0.31361045	-1.26075653	-0.35228124	-0.11395516	-0.52439594	-2.30269192	-0.79586446	-2.22085130	-0.77570675	-0.12068427	1.30499453	-0.15719040	-0.75548466	0.07928767	-0.66603788	1.75026906	-3.14171616
4414	44.13000000	-0.09856948	0.10087564	0.01943951	-0.29087343	-0.00262602	-0.16426919	0.00508886	0.32031821	-1.34958131	-0.27932419	-0.10199763	-0.49795103	-1.50620094	-0.87944484	-1.24005925	-0.93634543	-0.22457948	1.03582523	-0.11351807	-0.82130979	0.06303566	0.04754632	1.46493661	-2.51181046
4415	44.14000000	-0.12207357	0.12123921	-0.01088279	-0.24645775	-0.01809311	-0.21477157	-0.04817682	0.35211220	-1.42303248	-0.21094758	-0.07245882	-0.45686973	-1.25897127	-0.56970360	-0.07693659	-1.27930897	-0.10093083	0.70725252	-0.08369661	-0.90032828	0.04193120	0.83249557	0.87897616	-1.86120071
4416	44.15000000	-0.13529762	0.13769195	-0.03079933	-0.21040075	-0.07084856	-0.23485369	-0.13780787	0.36843883	-1.48814886	-0.10387593	-0.03371788	-0.41242166	-0.93724436	-0.10360062	0.96691165	-1.85564049	-0.00742808	0.42209155	-0.07755270	-1.00648925	0.01741160	0.71398181	-0.07827433	-1.11474098
4417	44.16000000	-0.14300792	0.15486893	-0.03932504	-0.24504785	-0.14122591	-0.24317891	-0.17102176	0.38707284	-1.57603518	-0.03725668	0.02020453	-0.38818236	-0.66002114	0.16588521	1.55934808	-2.38066571	-0.12600614	0.22618816	-0.00314459	-1.13046660	-0.02874393	-0.10615204	-1.01455840	-0.35853211
4418	44.17000000	-0.16857850	0.17633205	-0.04034477	-0.36726320	-0.20434749	-0.24103857	-0.20290345	0.39192631	-1.66381766	-0.07151938	0.07620046	-0.33481629	-0.90321084	0.32021330	1.96158739	-2.50291872	-0.38988288	0.12883056	-0.02068825	-1.25989370	-0.07992899	-0.84640313	-2.11014260	0.33946612
4419	44.18000000	-0.21251908	0.22362859	-0.03879724	-0.53849843	-0.22766762	-0.24965077	-0.23865088	0.36178039	-1.76536280	-0.19700830	0.12713678	-0.23211288	-1.21198695	0.43988401	2.33981154	-2.27839610	-0.63840736	0.09503040	-0.09779846	-1.44848985	-0.16255018	-1.88634154	-2.74189194	0.83577188
4420	44.19000000	-0.28863296	0.31705811	-0.03870574	-0.70553035	-0.21707148	-0.27152777	-0.31165562	0.32998043	-1.84593216	-0.41999589	0.18536213	-0.15976722	-1.38299899	0.23599045	2.44775294	-1.99837488	-0.80423137	0.15762627	0.00975144	-1.64315542	-0.24536156	-2.19133920	-2.34392944	0.86459826
4421	44.20000000	-0.38142096	0.42943920	-0.04984217	-0.82615192	-0.19688242	-0.31516510	-0.44838853	0.30669669	-1.89808088	-0.63261421	0.27353259	-0.11068963	-1.27277098	-0.30246490	1.93685897	-1.83951663	-0.95144212	0.35091169	0.05095482	-1.88329650	-0.29164538	-1.50655419	-1.88196662	0.52742598
4422	44.21000000	-0.46506984	0.52984556	-0.08434302	-0.86394648	-0.19156612	-0.39008319	-0.58314547	0.31252230	-1.96636231	-0.77292569	0.36874718	-0.04954507	-0.51261856	-1.06154590	0.58103967	-1.85444551	-1.12632648	0.68703228	-0.03421940	-2.19055016	-0.30516994	-1.84095396	-1.63902374	0.37287339
4423	44.22000000	-0.50897212	0.57566199	-0.13189906	-0.78268853	-0.23792578	-0.45086292	-0.66958458	0.31321011	-2.04968190	-0.89113558	0.45805234	-0.01408778	0.94207663	-1.56563909	-0.65313974	-1.79694451	-1.22175431	1.22633286	-0.02811990	-2.53278841	-0.31284890	-1.04822661	-4.96623266	0.62407907
